<?xml version="1.0" encoding="iso-8859-1"?>
<!-- Generator: Adobe Illustrator 19.0.0, SVG Export Plug-In . SVG Version: 6.00 Build 0)  -->
<svg version="1.1" id="Capa_1" xmlns="http://www.w3.org/2000/svg" xmlns:xlink="http://www.w3.org/1999/xlink" x="0px" y="0px"
	 viewBox="0 0 480 480" style="enable-background:new 0 0 480 480;" xml:space="preserve">
<rect width="480" height="480" fill="#FFFFFF"/>
<rect x="304" y="332" style="fill:#BDCCD4;" width="80" height="32"/>
<g>
	<rect x="264" y="284" style="fill:#376078;" width="16" height="128"/>
	<rect x="200" y="284" style="fill:#376078;" width="16" height="128"/>
</g>
<path style="fill:#F4462D;" d="M352,292H128c-17.673,0-32-14.327-32-32V36c0-17.673,14.327-32,32-32h224c17.673,0,32,14.327,32,32
	v224C384,277.673,369.673,292,352,292z"/>
<circle style="fill:#376078;" cx="240" cy="148" r="120"/>
<circle style="fill:#F4462D;" cx="240" cy="148" r="72"/>
<polygon style="fill:#376078;" points="312,428 312,316 296,316 296,428 248,428 248,324 232,324 232,428 184,428 184,316 168,316
	168,428 144,428 144,444 336,444 336,428 "/>
<polygon style="fill:#BDCCD4;" points="368,460 368,396 320,396 320,412 352,412 352,460 128,460 128,412 160,412 160,396 112,396
	112,460 0,460 0,476 480,476 480,460 "/>
<rect x="384" y="324" style="fill:#376078;" width="32" height="48"/>
<rect x="120" y="332" style="fill:#BDCCD4;" width="48" height="32"/>
<g>
	<circle style="fill:#D1E5ED;" cx="240" cy="52" r="16"/>
	<circle style="fill:#D1E5ED;" cx="160" cy="100" r="16"/>
	<circle style="fill:#D1E5ED;" cx="160" cy="196" r="16"/>
	<circle style="fill:#D1E5ED;" cx="320" cy="100" r="16"/>
	<circle style="fill:#D1E5ED;" cx="320" cy="196" r="16"/>
	<circle style="fill:#D1E5ED;" cx="240" cy="244" r="16"/>
</g>
<circle style="fill:#BDCCD4;" cx="240" cy="148" r="24"/>
<g>
	<circle style="fill:#FFFFFF;" cx="260" cy="176" r="12"/>
	<circle style="fill:#FFFFFF;" cx="212" cy="112" r="28"/>
</g>
</svg>
